<svg id="Capa_1" enable-background="new 0 0 512 512" viewBox="0 0 512 512" xmlns="http://www.w3.org/2000/svg"><g><path d="m361.651 120.442c-28.423-24.364-65.278-39.17-105.65-39.17s-77.228 14.806-105.65 39.17v9.591h211.301v-9.591z" fill="#fff4d6"/><path d="m266.837 130.033h-108.36l-5.718-5.718c-21.3 17.478-41.7 45.293-45.358 76.829-4.687 40.401-20.003 45.206-28.435 73.65-9.061 30.568-2.657 49.059-8.927 77.037-7.893 35.221-25.104 57.392-13.064 88.837 11.341 29.617 60.708 51.882 68.994 55.078h140.867v-365.713z" fill="#a46a5a"/><path d="m441.96 351.831c-6.27-27.978.134-46.469-8.927-77.036-8.431-28.444-23.747-33.249-28.434-73.65-3.657-31.522-24.087-59.327-45.38-76.805l-5.694 5.694h-97.523v365.713h130.031c7.404-2.803 57.434-24.893 68.992-55.078 12.04-31.446-5.171-53.616-13.065-88.838z" fill="#845252"/><path d="m193.975 150.532-2.521-34.725 16.642-15.581h101.053l11.478 15.581-7.947 31.195-71.488-8.826z" fill="#ffd05b"/><path d="m384.242 277.268c8.388 7.523 14.792 16.697 17.267 32.84.666 4.345 2.276 8.5 4.729 12.148 8.899 13.231 27.018 48.941-9.502 80.745-5.889 5.128-9.844 11.997-11.09 19.706-3.35 20.726-20.227 59.453-101.647 37.609l-16.68-132.172z" fill="#70393c"/><path d="m127.761 277.265c-8.388 7.523-14.792 16.697-17.267 32.84-.666 4.345-2.276 8.5-4.729 12.148-8.899 13.231-27.018 48.941 9.502 80.745 5.889 5.128 9.844 11.997 11.09 19.706 3.35 20.726 20.227 59.453 101.647 37.609l16.68-132.172z" fill="#845252"/><path d="m165.338 335.27-14.713 1.607c-7.127 11.677-16.529 29.951-16.529 45.092 0 7.479 3.367 14.171 8.669 18.644 0 0 6.787 4.455 15.712 4.455 13.465 0 21.808-9.633 21.808-23.099 0-15.854-7.736-35.145-14.947-46.699z" fill="#ffe077"/><path d="m357.081 335.163-11.366 1.607c-7.127 11.677-16.529 29.951-16.529 45.092 0 7.479 3.367 14.171 8.669 18.644 0 0 6.787 4.455 15.712 4.455 13.465 0 21.808-9.633 21.808-23.099 0-15.855-11.083-35.145-18.294-46.699z" fill="#ffe077"/><path d="m360.384 335.27c-3.153-5.052-10.567-5.052-13.72 0-.312.5-.654 1.089-.977 1.617 6.448 11.445 13.316 26.617 13.316 39.564 0 12.357-9.227 22.459-21.148 24.055 4.247 3.594 9.669 5.844 15.669 5.844 13.465 0 24.381-10.916 24.381-24.381 0-15.854-10.309-35.145-17.521-46.699z" fill="#ffd05b"/><path d="m165.337 335.27c-3.153-5.052-10.567-5.052-13.72 0-.312.5-.67 1.079-.992 1.607 6.448 11.445 13.331 26.626 13.331 39.573 0 12.357-9.271 22.566-21.191 24.162 4.247 3.594 9.713 5.737 15.712 5.737 13.465 0 24.381-10.916 24.381-24.381 0-15.853-10.309-35.144-17.521-46.698z" fill="#ffd05b"/><path d="m403.995 497.552-83.937-29.625c-12.997-4.587-21.688-16.872-21.688-30.654v-41.368l-91.131 15.656v20.551c0 13.783-8.691 26.067-21.688 30.655l-83.937 29.625c-.105.037-.209.074-.313.112-10.442 3.765-7.271 19.496 3.829 19.496h301.742c2.126 0 3.962-.577 5.466-1.537z" fill="#f4aa73"/><path d="m410.701 492.503c-.105-.038-.209-.075-.314-.112l-83.937-29.625c-12.997-4.587-21.688-16.872-21.688-30.655v-50.143h-97.523v29.592c7.674 3.665 15.802 6.527 24.307 8.382 15.077 3.289 29.695 3.4 43.476 1.042 7.011-1.2 13.488 3.916 13.488 11.029v.098c0 20.635 13.071 39.115 32.532 45.984l91.297 32.366c6.423-4.009 6.838-14.901-1.638-17.958z" fill="#e29a6c"/><path d="m231.62 483.783c-15.291-4.814-28.989-14.036-39.294-27.033-2.794-3.516-7.897-4.107-11.413-1.321-3.516 2.79-4.111 7.901-1.317 11.417 13.442 16.96 31.699 28.603 52.024 33.841z" fill="#ffe077"/><path d="m331.088 455.429c-3.516-2.782-8.619-2.194-11.413 1.321-10.305 12.996-24.002 22.219-39.293 27.033v16.903c20.325-5.238 38.581-16.88 52.024-33.841 2.793-3.515 2.198-8.627-1.318-11.416z" fill="#ffe077"/><path d="m324.759 232.943c-21.771-35.532-44.72-31.141-63.368-39.444l-17.812-4.257c-19.086 10.05-43.16 3.508-65.947 40.698-16.541 26.996-35.966 34.85-49.872 47.325-1.924 3.866-2.66 8.438-.367 13.555 2.762 6.165 9.224 9.879 15.979 9.879h.001c3.89 0 6.95 3.093 7.203 6.975 3.232 49.587 40.674 89.844 88.957 97.4 0 0 10.865.116 16.466.116 44.501 0 89.345-46.712 92.936-101.81z" fill="#fbbd80"/><path d="m256.001 357.588c-12.19 0-23.444-3.913-30.087-10.468-3.198-3.151-3.23-8.298-.079-11.492 3.151-3.198 8.309-3.234 11.492-.079 2.706 2.671 9.222 5.786 18.675 5.786 9.452 0 15.968-3.115 18.675-5.786 3.183-3.155 8.341-3.119 11.492.079 3.151 3.194 3.119 8.341-.079 11.492-6.645 6.555-17.899 10.468-30.089 10.468z" fill="#ff7e92"/><g fill="#845252"><path d="m207.239 300.699c-4.492 0-8.127-3.639-8.127-8.127v-8.127c0-4.488 3.635-8.127 8.127-8.127s8.127 3.639 8.127 8.127v8.127c0 4.488-3.635 8.127-8.127 8.127z"/><path d="m304.762 300.699c-4.492 0-8.127-3.639-8.127-8.127v-8.127c0-4.488 3.635-8.127 8.127-8.127s8.127 3.639 8.127 8.127v8.127c0 4.488-3.635 8.127-8.127 8.127z"/><path d="m215.366 268.191h-16.254c-4.492 0-8.127-3.639-8.127-8.127s3.635-8.127 8.127-8.127h16.254c4.492 0 8.127 3.639 8.127 8.127 0 4.489-3.635 8.127-8.127 8.127z"/><path d="m312.889 268.191h-16.254c-4.492 0-8.127-3.639-8.127-8.127s3.635-8.127 8.127-8.127h16.254c4.492 0 8.127 3.639 8.127 8.127 0 4.489-3.635 8.127-8.127 8.127z"/></g><path d="m345.389 165.898c-1.19 0-2.405-.262-3.556-.821-25.222-12.294-54.905-18.79-85.833-18.79s-60.611 6.496-85.833 18.79c-4.063 1.988-8.905.286-10.873-3.746-1.96-4.036-.286-8.901 3.746-10.865 27.436-13.369 59.579-20.432 92.96-20.432s65.524 7.063 92.96 20.432c4.032 1.964 5.706 6.829 3.746 10.865-1.412 2.889-4.301 4.567-7.317 4.567z" fill="#ffe077"/><path d="m385.818 38.799c-.984-4.246-5.127-6.944-9.413-6.151-1.763.332-40.502 7.91-64.882 36.09-8.025-36.581-48.907-65.888-50.832-67.244-2.809-1.992-6.571-1.992-9.381 0-1.924 1.355-42.752 30.624-50.816 67.171-24.383-28.12-63.057-35.685-64.819-36.017-4.286-.794-8.428 1.905-9.413 6.151-.468 2-11.119 49.437 12.611 83.456 7.428 10.643 18.167 16.619 28.031 16.619 4.492 0 8.81-1.242 12.548-3.853 15.222-10.218 23.841-16.286 25.492-17.94 2.864-2.875 4.96-6.265 6.292-9.96 5.7 4.689 13.018 7.472 21.097 7.472l46.976.016c8.141 0 15.613-2.921 21.432-7.771 1.325 3.806 3.457 7.295 6.394 10.243 1.651 1.655 10.27 7.722 25.492 17.94 3.738 2.611 8.056 3.853 12.548 3.853 9.865 0 20.603-5.976 28.031-16.619 23.731-34.019 13.08-81.456 12.612-83.456zm-192.388 66.81c-1.476 1.254-13 9.178-23.159 16.004-3.873 2.698-12.357-.472-18.063-8.659-14.365-20.587-13.183-48.528-11.468-62.222 12.738 3.865 37.508 13.639 51.778 34.095 6.118 8.766 4.761 16.921.912 20.782zm85.88-7.254-46.976-.016c-10.619 0-16.968-8.845-16.968-17.397 0-27.055 29.04-53.198 40.635-62.559 11.595 9.361 40.635 35.504 40.635 62.559-.001 9.766-7.612 17.413-17.326 17.413zm80.563 14.599c-5.706 8.187-14.19 11.357-18.063 8.659-10.159-6.825-21.683-14.75-23.159-16.004-3.849-3.861-5.206-12.016.913-20.781 14.27-20.456 39.04-30.23 51.778-34.095 1.714 13.693 2.896 41.634-11.469 62.221z" fill="#ffe077"/><path d="m256.001 56.891c-4.492 0-8.127 3.639-8.127 8.127v40.635h16.254v-40.635c0-4.488-3.635-8.127-8.127-8.127z" fill="#ffd05b"/><path d="m384.242 277.268c-13.906-12.477-33.333-20.33-49.875-47.328-1.735-2.831-3.477-5.401-5.224-7.751-26.532-35.705-54.149-19.089-73.144-43.394-3.818 4.885-7.985 8.112-12.421 10.447 11.902 14.915 26.587 18.72 38.421 21.755 14.381 3.683 25.738 6.595 38.508 27.436.03.049.06.098.09.147 5.395 8.775 8.545 18.737 8.545 29.038v33.08c0 52.823-38.975 96.558-89.609 104.375 5.324.826 10.91 1.276 16.466 1.276 56.004 0 101.83-43.575 105.423-98.67.255-3.91 3.813-6.876 7.73-6.988 6.563-.187 12.763-3.867 15.454-9.871 2.294-5.116 1.559-9.688-.364-13.552z" fill="#f4aa73"/><path d="m274.086 113.779c0-17.765-14.864-24.17-14.864-24.17-1.054-.139-2.13-.211-3.222-.211-13.465 0-24.381 10.916-24.381 24.381 0 7.218 3.136 13.703 8.12 18.167 0 0 6.654 3.57 16.26 3.57 9.209 0 18.087-8.272 18.087-21.737z" fill="#ff7e92"/><path d="m259.222 89.609c4.988 4.464 8.141 10.992 8.141 18.213 0 13.465-10.916 24.381-24.381 24.381-1.088 0-2.192-.119-3.242-.257 4.313 3.861 10.016 6.214 16.26 6.214 13.465 0 24.381-10.916 24.381-24.381 0-12.377-9.211-22.599-21.159-24.17z" fill="#ff5f7a"/><path d="m239.746 495.746c0 1.875.318 3.677.902 5.353 0 0 5.446 8.795 15.352 8.795 8.977 0 14.752-5.171 14.752-14.148 0-9.846-9.788-15.482-9.788-15.482-1.565-.501-3.233-.772-4.964-.772-8.977 0-16.254 7.277-16.254 16.254z" fill="#ff7e92"/><path d="m260.964 480.264c.57 1.657.92 3.481.92 5.332 0 8.977-7.277 16.254-16.254 16.254-1.734 0-3.415-.249-4.982-.751 2.194 6.381 8.226 10.901 15.352 10.901 8.977 0 16.254-7.277 16.254-16.254 0-7.243-4.745-13.382-11.29-15.482z" fill="#ff5f7a"/><path d="m272.254 487.619c0 1.875.318 3.677.902 5.353 0 0 5.446 8.795 15.352 8.795 8.977 0 14.752-5.171 14.752-14.148 0-9.846-9.788-15.482-9.788-15.482-1.565-.501-3.233-.772-4.964-.772-8.977 0-16.254 7.277-16.254 16.254z" fill="#dfbdf0"/><path d="m293.471 472.137c.57 1.657.92 3.481.92 5.332 0 8.977-7.277 16.254-16.254 16.254-1.734 0-3.415-.249-4.982-.751 2.194 6.381 8.226 10.901 15.352 10.901 8.977 0 16.254-7.277 16.254-16.254.001-7.243-4.744-13.382-11.29-15.482z" fill="#cbb0f2"/><path d="m207.238 487.619c0 1.875.318 3.677.902 5.353 0 0 5.446 8.795 15.352 8.795 8.977 0 14.752-5.171 14.752-14.148 0-9.846-9.788-15.482-9.788-15.482-1.565-.501-3.233-.772-4.964-.772-8.977 0-16.254 7.277-16.254 16.254z" fill="#dfbdf0"/><path d="m228.456 472.137c.57 1.657.92 3.481.92 5.332 0 8.977-7.277 16.254-16.254 16.254-1.734 0-3.415-.249-4.982-.751 2.194 6.381 8.226 10.901 15.352 10.901 8.977 0 16.254-7.277 16.254-16.254 0-7.243-4.745-13.382-11.29-15.482z" fill="#cbb0f2"/><path d="m175.874 93.764c-2.587-3.667-7.651-4.536-11.325-1.945-3.667 2.587-4.54 7.659-1.944 11.325l15.579 22.043 13.27-9.381z" fill="#ffd05b"/><path d="m174.812 130.033c0 1.875.318 3.677.902 5.353 0 0 5.446 8.795 15.352 8.795 8.977 0 14.752-5.171 14.752-14.148 0-9.846-9.788-15.482-9.788-15.482-1.565-.501-3.233-.772-4.964-.772-8.977 0-16.254 7.277-16.254 16.254z" fill="#dfbdf0"/><path d="m196.029 114.551c.57 1.657.92 3.481.92 5.332 0 8.977-7.277 16.254-16.254 16.254-1.734 0-3.415-.249-4.982-.751 2.194 6.381 8.226 10.901 15.352 10.901 8.977 0 16.254-7.277 16.254-16.254 0-7.243-4.744-13.382-11.29-15.482z" fill="#cbb0f2"/><path d="m347.532 91.819c-3.675-2.591-8.738-1.722-11.325 1.945l-15.579 22.043 13.27 9.381 15.579-22.043c2.595-3.667 1.722-8.739-1.945-11.326z" fill="#ffd05b"/><path d="m304.762 130.033c0 1.875.318 3.677.902 5.353 0 0 5.446 8.795 15.352 8.795 8.977 0 14.752-5.171 14.752-14.148 0-9.846-9.788-15.482-9.788-15.482-1.565-.501-3.233-.772-4.964-.772-8.977 0-16.254 7.277-16.254 16.254z" fill="#dfbdf0"/><path d="m325.979 114.551c.57 1.657.92 3.481.92 5.332 0 8.977-7.277 16.254-16.254 16.254-1.734 0-3.415-.249-4.982-.751 2.194 6.381 8.226 10.901 15.352 10.901 8.977 0 16.254-7.277 16.254-16.254 0-7.243-4.744-13.382-11.29-15.482z" fill="#cbb0f2"/></g><g/><g/><g/><g/><g/><g/><g/><g/><g/><g/><g/><g/><g/><g/><g/></svg>