<svg enable-background="new 0 0 512 512" height="512" viewBox="0 0 512 512" width="512" xmlns="http://www.w3.org/2000/svg"><g id="_x32_7_Crown"><g><path d="m444.328 377.621v.09c0 14.067-11.435 25.502-25.5 25.502h-320.811c-14.067 0-25.501-11.435-25.501-25.502v-.09c0-13.976 11.253-25.321 25.138-25.502h321.174c14.065 0 25.5 11.435 25.5 25.502z" fill="#fffdff"/><path d="m245.019 174.141-32.925 45.842-31.946 44.56-55.54-44.56-63.268-50.771-14.438 11.164 50.752 171.743h321.174 2.994l48.331-170.924-17.626-9.249-58.657 48.037-55.449 45.377-30.221-45.377h-.091v-.09l-30.853-46.393" fill="#ffd2e6"/><path d="m212.112 220.012-31.935 44.539-55.597-44.539 34.332-64.102c1.392.464 2.861.773 4.408 1.005 4.871.619 9.588-.232 13.686-2.242h.077z" fill="#ffd2e6"/><path d="m393.903 220.012-55.519 45.312-30.157-45.312h-.155v-.155l35.956-63.716c1.16.387 2.32.619 3.48.773 3.634.464 7.269.077 10.516-1.005h.155z" fill="#ffd2e6"/><g fill="#fffdff"><path d="m292.117 146.708c0 17.404-14.109 31.513-31.513 31.513s-31.513-14.109-31.513-31.513 14.109-31.512 31.513-31.512 31.513 14.108 31.513 31.512z"/><path d="m190.413 136.053c-1.718 13.229-13.834 22.56-27.063 20.842s-22.56-13.835-20.842-27.063c1.718-13.229 13.834-22.56 27.063-20.842s22.561 13.834 20.842 27.063z"/><path d="m374.549 136.053c-1.718 13.229-13.834 22.56-27.063 20.842s-22.56-13.835-20.842-27.063c1.718-13.229 13.834-22.56 27.063-20.842s22.56 13.834 20.842 27.063z"/><path d="m298.48 296.819-33.699 33.7c-2.302 2.302-6.034 2.302-8.336 0l-33.699-33.7c-10.472-10.472-10.472-27.418 0-37.867 10.449-10.473 27.395-10.473 37.868 0 10.448-10.473 27.394-10.473 37.867 0 10.447 10.449 10.447 27.395-.001 37.867z"/><path d="m495.707 157.096c0 13.339-10.814 24.153-24.154 24.153-13.339 0-24.153-10.814-24.153-24.153 0-13.34 10.814-24.154 24.153-24.154 13.34 0 24.154 10.814 24.154 24.154z"/><path d="m64.402 160.206c-1.717 13.229-13.834 22.56-27.063 20.842-13.228-1.717-22.56-13.834-20.841-27.063 1.717-13.229 13.834-22.56 27.063-20.842 13.227 1.719 22.559 13.835 20.841 27.063z"/></g><g fill="#ff8bad"><path d="m260.61 251.364c-32.427-23.267-69.749 21.759-41.967 49.559l33.701 33.694c4.561 4.561 11.976 4.561 16.537 0l33.697-33.694c.004 0 .004 0 .004-.008 28.1-28.157-9.729-72.706-41.972-49.551zm33.766 41.358-33.83 33.694-33.701-33.694c-19.508-19.525 10.054-49.284 29.669-29.669 2.275 2.275 5.962 2.259 8.204-.008 19.632-19.633 49.231 10.04 29.658 29.677z"/><path d="m471.554 127.145c-16.514 0-29.952 13.434-29.952 29.949 0 4.894 1.292 9.449 3.382 13.533l-49.416 40.454-29.333-52.634c7.446-4.575 12.857-12.326 14.066-21.643 2.132-16.418-9.426-31.424-25.848-33.566-16.522-2.119-31.435 9.502-33.558 25.848-1.608 12.397 4.657 24.006 14.894 29.857l-28.116 49.826-22.659-34.071c7.839-6.845 12.902-16.79 12.902-27.988 0-20.577-16.738-37.319-37.315-37.319-20.574 0-37.311 16.742-37.311 37.319 0 11.576 5.411 21.809 13.714 28.659l-24.181 33.691-28.141-52.495c6.068-4.68 10.419-11.584 11.48-19.762 2.132-16.414-9.422-31.424-25.844-33.566-16.687-2.107-31.455 9.628-33.561 25.848-1.571 12.102 4.376 23.443 14.183 29.421l-28.157 52.574-54.313-43.58c.776-2.1 1.386-4.272 1.681-6.549 2.126-16.371-9.465-31.428-25.848-33.565-16.318-2.092-31.432 9.469-33.557 25.848-2.132 16.413 9.421 31.423 25.844 33.565 3.803.481 5.225.137 6.181.064l47.441 160.54c-13.454 3.504-23.496 15.747-23.496 30.306 0 17.263 14.041 31.3 31.3 31.3h320.811c17.258 0 31.3-14.038 31.3-31.3v-.09c0-13.692-8.89-25.229-21.157-29.468l45.643-161.412c15.063-1.557 26.894-14.179 26.894-29.646 0-16.514-13.438-29.948-29.953-29.948zm-139.158 3.437c1.308-10.091 10.548-17.152 20.566-15.835 10.055 1.297 17.144 10.499 15.839 20.562-1.303 10.028-10.493 17.157-20.566 15.835-10.036-1.307-17.141-10.527-15.839-20.562zm14.596 32.107c1.65.199 5.143.352 8.243-.151l31.214 56.008c-.783.64-49.86 40.766-46.768 38.239-.518-.779-26.423-39.686-24.782-37.22zm-112.101-15.978c0-14.181 11.535-25.72 25.712-25.72 14.181 0 25.716 11.538 25.716 25.72 0 14.181-11.535 25.712-25.716 25.712-14.178 0-25.712-11.531-25.712-25.712zm-86.632-16.129c1.317-10.16 10.613-17.138 20.569-15.835 10.029 1.294 17.142 10.478 15.835 20.562-1.303 10.028-10.493 17.157-20.566 15.835-10.035-1.307-17.141-10.527-15.838-20.562zm13.667 31.979c3.558.614 9.631.056 12.43-.71l30.934 57.708-26.283 36.62c-.789-.633-50.134-40.21-47.019-37.711zm-123.844 12.731c-10.028-1.294-17.142-10.479-15.835-20.562 1.308-10.063 10.589-17.159 20.565-15.835 10.036 1.306 17.141 10.526 15.839 20.562-1.282 9.894-10.32 17.153-20.569 15.835zm400.447 202.329v.09c0 10.866-8.838 19.702-19.701 19.702h-320.812c-10.863 0-19.701-8.835-19.701-19.792 0-10.723 8.71-19.565 19.338-19.701h321.174c10.863 0 19.702 8.834 19.702 19.701zm-21.095-31.3h-315.445l-48.03-162.534c3.883-1.974 5.895-3.691 8.369-6.341 2.393 1.92 115.048 92.305 114.192 91.618 2.505 2.017 6.371 1.658 8.37-1.133l62.125-86.561c9.554 3.76 19.438 3.415 28.252-.37.517.776 58.804 88.309 58.287 87.534 1.935 2.917 6.017 3.371 8.541 1.306 8.45-6.916 96.337-78.863 110.072-90.106 3.097 2.657 6.715 4.66 10.712 5.881zm54.12-170.87c-10.119 0-18.353-8.238-18.353-18.357s8.234-18.35 18.353-18.35 18.354 8.231 18.354 18.35-8.235 18.357-18.354 18.357z"/></g></g></g></svg>